<?xml version="1.0" encoding="utf-8"?>
<!-- Generator: Adobe Illustrator 27.9.0, SVG Export Plug-In . SVG Version: 6.00 Build 0)  -->
<svg version="1.1" id="Warstwa_1" xmlns="http://www.w3.org/2000/svg" xmlns:xlink="http://www.w3.org/1999/xlink" x="0px" y="0px"
	 viewBox="0 0 319 189" style="enable-background:new 0 0 319 189;" xml:space="preserve">
<style type="text/css">
	.st0{fill:#47433A;}
	.st1{fill:#77746A;}
	.st2{opacity:0.65;fill:#77746A;}
	.st3{opacity:0.42;fill:#77746A;}
	.st4{fill:#277871;}
	.st5{fill:#33998C;}
	.st6{fill:#D3EFEB;}
	.st7{clip-path:url(#SVGID_00000120542831800072151280000001780484719561028775_);fill:#33998C;}
</style>
<rect x="77.9" y="81.5" class="st0" width="36" height="36"/>
<rect x="41.9" y="117.5" class="st0" width="36" height="36"/>
<path class="st1" d="M77.9,149.5v-14.1c-3.9,0.3-7.8,0.5-13.1-0.2c-2.1-0.3-3.8-0.6-5.1-0.9c0.6-2.5,1.5-4.2,1.6-8.6
	c0.1-3.4-0.4-5.9-0.9-8.2H45.9v36c5.1,0,10.3,0,15.4,0c-0.4-1.1-0.8-2.5-1.1-4H77.9z"/>
<circle class="st2" cx="67.4" cy="130" r="1.5"/>
<circle class="st3" cx="60.9" cy="142.5" r="4"/>
<path class="st4" d="M199.3,155.5h25.3c1.4-1.2,2.3-3,2.3-5c0-3.6-3-6.6-6.7-6.7c-1.3-3.6-4.4-6.1-8-6.1c-3,0-5.7,1.8-7.2,4.5
	c-0.1,0-0.2,0-0.3,0c-4.3,0-7.8,3.5-7.8,7.8C196.9,152.1,197.8,154.1,199.3,155.5z"/>
<g>
	<ellipse class="st4" cx="195.9" cy="82.3" rx="20.2" ry="33.8"/>
	<path class="st0" d="M195.9,59.2c-0.1,11.9-0.1,21.6,0,28.5c0.1,9.8,0.3,15.8,0,24.9c-0.3,8-0.8,14.6-1.2,19c0.8,0,1.6,0,2.4,0
		C196.7,107.4,196.3,83.3,195.9,59.2z"/>
</g>
<g>
	<path class="st0" d="M259.7,76.5c-0.3,8.4-0.2,15.2,0,20c0.3,8.1,0.3,11.6,0,17.5c-0.3,5.6-0.8,10.3-1.2,13.4c1.2,0,2.4,0,3.6,0
		C261.3,110.5,260.5,93.5,259.7,76.5z"/>
	<path class="st0" d="M245.8,87c2.3,2.5,4.3,4.4,5.7,5.8c2.4,2.2,3.4,3.3,5,5.1c1.5,1.7,2.7,3.2,3.4,4.2c0.3-0.3,0.7-0.7,1-1
		C255.9,96.3,250.8,91.6,245.8,87z"/>
	<path class="st0" d="M269.4,82.6c0,0-3.1,3.8-4.5,5.9c-0.2,0.2-0.7,1.1-1.6,2.2c-0.3,0.4-0.5,0.7-0.9,1.1c-0.8,1-1.6,1.8-2.1,2.3
		c-0.6,1.7-0.6,1.9-0.6,1.9l0,0C267.3,85.7,269.5,82.6,269.4,82.6z"/>
	<path class="st4" d="M260.9,82.6c11.7,0,21.8,8.2,26.4,20c1.7-4.4,2.7-9.4,2.7-14.6c0-19.1-13-34.6-29.1-34.6S231.8,69,231.8,88.1
		c0,5.2,1,10.1,2.7,14.6C239.2,90.8,249.2,82.6,260.9,82.6z"/>
</g>
<path class="st4" d="M252.5,153.5h8.8c0.3-0.3,0.5-0.6,0.7-1c1.7-3.1-0.1-7-1-7c-0.9,0-1.3,4.1-2,4c-0.5,0-0.7-1.8-1-4
	c-0.6-3.6-1.9-10-3-10c-0.1,0-0.5,0.1-1,2c-1.5,5.8,0.5,10.9,0,11c-0.3,0.1-1.3-1.8-2-4c-0.8-2.5-0.6-3.9-1-4c-0.6-0.1-1.9,2.4-2,5
	c-0.1,2.9,1.3,5,2,6C251.4,152.2,251.9,152.9,252.5,153.5z"/>
<path class="st5" d="M74.2,134.5c-1.4,0.2-2.6,2.6-3.1,5c-0.7-1.8-1.8-3.1-2.9-3c-0.9,0.1-1.7,1.1-2.3,2.5c-0.6-2.7-2.1-5.7-3.7-5.5
	c-0.9,0.1-1.8,1.3-2.4,2.8c-1.1-0.8-3-1.4-4.6-1.7c1.6-0.7,2.9-1.8,2.7-2.8c-0.1-0.9-1.1-1.7-2.5-2.3c2.7-0.6,5.7-2.1,5.5-3.7
	c-0.2-1.4-2.6-2.6-5-3.1c1.8-0.7,3.1-1.8,3-2.9c-0.1-0.9-1.1-1.7-2.5-2.3c0,0,0,0,0,0H41.9v22.3v13.7h13.7h22.3V140
	C77.4,137.3,75.8,134.3,74.2,134.5z"/>
<g>
	<rect x="77.9" y="45.5" class="st0" width="36" height="36"/>
	<circle class="st2" cx="86.4" cy="71" r="2.5"/>
	<circle class="st2" cx="99.4" cy="72" r="1.5"/>
	<path class="st1" d="M77.9,64.9c8.1-0.4,11.4-2.9,22-2.2c4,0.3,2.9,0.6,8,1.1c2.2,0.2,4.1,0.3,6,0.4V49.5h-36V64.9z"/>
	<path class="st5" d="M81.7,65.5c1.5-0.2,2.8-3.1,3.2-5.7c0.7,1.6,1.8,2.9,2.8,2.7c0.9-0.1,1.7-1.1,2.3-2.5c0.6,2.7,2.1,5.7,3.7,5.5
		c1.7-0.2,3.1-3.8,3.3-6.6c0.7,1.5,1.7,2.7,2.7,2.6c0.9-0.1,1.7-1.1,2.3-2.5c0.6,2.7,2.1,5.7,3.7,5.5c1.5-0.2,2.8-3.1,3.2-5.7
		c0.7,1.6,1.8,2.9,2.8,2.7c0.9-0.1,1.7-1.1,2.3-2.5c0,0,0,0,0,0V45.5h-36V60C78.5,62.7,80,65.7,81.7,65.5z"/>
	<circle class="st6" cx="97.5" cy="49.8" r="1.3"/>
	<circle class="st6" cx="91.1" cy="51.1" r="0.9"/>
	<circle class="st6" cx="104.8" cy="53.6" r="0.9"/>
</g>
<g>
	<rect x="77.9" y="117.5" transform="matrix(-1 -1.224647e-16 1.224647e-16 -1 191.8852 271)" class="st0" width="36" height="36"/>
	<circle class="st2" cx="105.4" cy="128" r="2.5"/>
	<circle class="st2" cx="92.4" cy="127" r="1.5"/>
	<path class="st1" d="M113.9,135c-8.1,0.4-11.4,2.1-22,1.3c-4-0.3-2.9-0.6-8-1.1c-2.2-0.2-4.1,0.2-6,0.2v14.1h36V135z"/>
	<path class="st5" d="M110.2,133.5c-1.5,0.2-2.8,3.1-3.2,5.7c-0.7-1.6-1.8-2.9-2.8-2.7c-0.9,0.1-1.7,1.1-2.3,2.5
		c-0.6-2.7-2.1-5.7-3.7-5.5c-1.7,0.2-3.1,3.8-3.3,6.6c-0.7-1.5-1.7-2.7-2.7-2.6c-0.9,0.1-1.7,1.1-2.3,2.5c-0.6-2.7-2.1-5.7-3.7-5.5
		c-1.5,0.2-2.8,3.1-3.2,5.7c-0.7-1.6-1.8-2.9-2.8-2.7c-0.9,0.1-1.7,1.1-2.3,2.5c0,0,0,0,0,0v13.5h36V139
		C113.4,136.3,111.8,133.3,110.2,133.5z"/>
	<circle class="st6" cx="94.4" cy="149.2" r="1.3"/>
	<circle class="st6" cx="100.8" cy="147.9" r="0.9"/>
	<circle class="st6" cx="87.1" cy="145.4" r="0.9"/>
</g>
<g>
	<rect x="41.9" y="81.5" class="st0" width="36" height="36"/>
	<circle class="st2" cx="74.4" cy="93" r="1.5"/>
	<circle class="st3" cx="68.4" cy="106" r="3.5"/>
	<path class="st1" d="M60.5,117.5c-0.8-3.6-1.8-6.8-1.3-12.9c0.3-3.4,0.6-2.5,1.1-6.7c0.8-6.9,0.2-11.6-0.2-16.4H45.9v36H60.5z"/>
	<path class="st5" d="M56.9,117.5c2.6-0.6,5.2-2.1,5.1-3.6c-0.2-1.5-3.1-2.8-5.7-3.2c1.6-0.7,2.9-1.8,2.7-2.8
		c-0.1-0.9-1.1-1.7-2.5-2.3c2.7-0.6,5.7-2.1,5.5-3.7c-0.2-1.7-3.8-3.1-6.6-3.3c1.5-0.7,2.7-1.7,2.6-2.7c-0.1-0.9-1.1-1.7-2.5-2.3
		c2.7-0.6,5.7-2.1,5.5-3.7c-0.2-1.5-3.1-2.8-5.7-3.2c1.6-0.7,2.9-1.8,2.7-2.8c-0.1-0.9-1.1-1.7-2.5-2.3c0,0,0,0,0,0H41.9v36H56.9z"
		/>
	<circle class="st6" cx="52.7" cy="114.6" r="1.3"/>
	<circle class="st6" cx="51.4" cy="108.1" r="0.9"/>
</g>
<circle class="st6" cx="48.8" cy="121.8" r="0.9"/>
<circle class="st6" cx="51" cy="142" r="1"/>
<g>
	<rect x="41.9" y="45.5" class="st0" width="36" height="36"/>
	<path class="st1" d="M45.9,81.5h14.1c-0.3-3.9-0.5-7.8,0.2-13.1c0.3-2.4,0.7-4.4,1-5.5c5.6,0.5,6.7,1.9,13.7,2.1c1.1,0,2.1,0,3,0
		V49.5h-36c0,5.1,0,10.3,0,15.4c1.1-0.3,2.5-0.7,4-1V81.5z"/>
	<circle class="st2" cx="65.8" cy="75.1" r="2.2"/>
	<g>
		<defs>
			<rect id="SVGID_1_" x="41.9" y="45.5" width="36" height="36"/>
		</defs>
		<clipPath id="SVGID_00000117638328202603323120000010600034671479159435_">
			<use xlink:href="#SVGID_1_"  style="overflow:visible;"/>
		</clipPath>
		<path style="clip-path:url(#SVGID_00000117638328202603323120000010600034671479159435_);fill:#33998C;" d="M136.2,45.5H55.6H41.9
			v13.7v80.6v13.7h13.7h80.6h13.7c0-4.6,0-9.1,0-13.7V59.2V45.5C145.4,45.5,140.8,45.5,136.2,45.5z M128.2,137.5
			c-0.9,0.1-1.7,1.1-2.3,2.5c-0.6-2.7-2.1-5.7-3.7-5.5c-1.4,0.2-2.6,2.6-3.1,5c-0.7-1.8-1.8-3.1-2.9-3c-0.9,0.1-1.7,1.1-2.3,2.5
			c-0.6-2.7-2.1-5.7-3.7-5.5c-1.5,0.2-2.8,3.1-3.2,5.7c-0.7-1.6-1.8-2.9-2.8-2.7c-0.9,0.1-1.7,1.1-2.3,2.5c-0.6-2.7-2.1-5.7-3.7-5.5
			c-1.7,0.2-3.1,3.8-3.3,6.6c-0.7-1.5-1.7-2.7-2.7-2.6c-0.9,0.1-1.7,1.1-2.3,2.5c-0.6-2.7-2.1-5.7-3.7-5.5c-1.5,0.2-2.8,3.1-3.2,5.7
			c-0.7-1.6-1.8-2.9-2.8-2.7c-0.9,0.1-1.7,1.1-2.3,2.5c-0.6-2.7-2.1-5.7-3.7-5.5c-1.4,0.2-2.6,2.6-3.1,5c-0.7-1.8-1.8-3.1-2.9-3
			c-0.9,0.1-1.7,1.1-2.3,2.5c-0.6-2.7-2.1-5.7-3.7-5.5c-0.9,0.1-1.8,1.3-2.4,2.8c-1.1-0.8-3-1.4-4.6-1.7c1.6-0.7,2.9-1.8,2.7-2.8
			c-0.1-0.9-1.1-1.7-2.5-2.3c2.7-0.6,5.7-2.1,5.5-3.7c-0.2-1.4-2.6-2.6-5-3.1c1.8-0.7,3.1-1.8,3-2.9c-0.1-0.9-1.1-1.7-2.5-2.3
			c2.7-0.6,5.7-2.1,5.5-3.7c-0.2-1.5-3.1-2.8-5.7-3.2c1.6-0.7,2.9-1.8,2.7-2.8c-0.1-0.9-1.1-1.7-2.5-2.3c2.7-0.6,5.7-2.1,5.5-3.7
			c-0.2-1.7-3.8-3.1-6.6-3.3c1.5-0.7,2.7-1.7,2.6-2.7c-0.1-0.9-1.1-1.7-2.5-2.3c2.7-0.6,5.7-2.1,5.5-3.7c-0.2-1.5-3.1-2.8-5.7-3.2
			c1.6-0.7,2.9-1.8,2.7-2.8c-0.1-0.9-1.1-1.7-2.5-2.3c2.7-0.6,5.7-2.1,5.5-3.7c-0.2-1.4-2.6-2.6-5-3.1c1.8-0.7,3.1-1.8,3-2.9
			c-0.1-0.9-1.1-1.7-2.5-2.3c2.7-0.6,5.7-2.1,5.5-3.7c-0.1-0.9-1.3-1.8-2.8-2.4c0.8-1.1,1.4-3,1.7-4.6c0.7,1.6,1.8,2.9,2.8,2.7
			c0.9-0.1,1.7-1.1,2.3-2.5c0.6,2.7,2.1,5.7,3.7,5.5c1.4-0.2,2.6-2.6,3.1-5c0.7,1.8,1.8,3.1,2.9,3c0.9-0.1,1.7-1.1,2.3-2.5
			c0.6,2.7,2.1,5.7,3.7,5.5c1.5-0.2,2.8-3.1,3.2-5.7c0.7,1.6,1.8,2.9,2.8,2.7c0.9-0.1,1.7-1.1,2.3-2.5c0.6,2.7,2.1,5.7,3.7,5.5
			c1.7-0.2,3.1-3.8,3.3-6.6c0.7,1.5,1.7,2.7,2.7,2.6c0.9-0.1,1.7-1.1,2.3-2.5c0.6,2.7,2.1,5.7,3.7,5.5c1.5-0.2,2.8-3.1,3.2-5.7
			c0.7,1.6,1.8,2.9,2.8,2.7c0.9-0.1,1.7-1.1,2.3-2.5c0.6,2.7,2.1,5.7,3.7,5.5c1.4-0.2,2.6-2.6,3.1-5c0.7,1.8,1.8,3.1,2.9,3
			c0.9-0.1,1.7-1.1,2.3-2.5c0.6,2.7,2.1,5.7,3.7,5.5c0.9-0.1,1.8-1.3,2.4-2.8c1.1,0.8,3,1.4,4.6,1.7c-1.6,0.7-2.9,1.8-2.7,2.8
			c0.1,0.9,1.1,1.7,2.5,2.3c-2.7,0.6-5.7,2.1-5.5,3.7c0.2,1.4,2.6,2.6,5,3.1c-1.8,0.7-3.1,1.8-3,2.9c0.1,0.9,1.1,1.7,2.5,2.3
			c-2.7,0.6-5.7,2.1-5.5,3.7c0.2,1.5,3.1,2.8,5.7,3.2c-1.6,0.7-2.9,1.8-2.7,2.8c0.1,0.9,1.1,1.7,2.5,2.3c-2.7,0.6-5.7,2.1-5.5,3.7
			c0.2,1.7,3.8,3.1,6.6,3.3c-1.5,0.7-2.7,1.7-2.6,2.7c0.1,0.9,1.1,1.7,2.5,2.3c-2.7,0.6-5.7,2.1-5.5,3.7c0.2,1.5,3.1,2.8,5.7,3.2
			c-1.6,0.7-2.9,1.8-2.7,2.8c0.1,0.9,1.1,1.7,2.5,2.3c-2.7,0.6-5.7,2.1-5.5,3.7c0.2,1.4,2.6,2.6,5,3.1c-1.8,0.7-3.1,1.8-3,2.9
			c0.1,0.9,1.1,1.7,2.5,2.3c-2.7,0.6-5.7,2.1-5.5,3.7c0.1,0.9,1.3,1.8,2.8,2.4c-0.8,1.1-1.4,3-1.7,4.6
			C130.3,138.6,129.3,137.4,128.2,137.5z"/>
	</g>
	<ellipse class="st6" cx="56.8" cy="54.5" rx="0.9" ry="1"/>
	<ellipse class="st6" cx="49.5" cy="52" rx="1.3" ry="1.5"/>
	<ellipse class="st6" cx="48" cy="73.9" rx="1" ry="0.9"/>
	<ellipse class="st6" cx="50.5" cy="66.5" rx="1.5" ry="1.3"/>
</g>
<g>
	<rect x="113.9" y="81.5" class="st0" width="36" height="36"/>
	<circle class="st2" cx="135.4" cy="105" r="1.5"/>
	<circle class="st3" cx="125.4" cy="93" r="3.5"/>
	<path class="st1" d="M131.4,81.5c0.8,3.6,1.8,6.8,1.3,12.9c-0.3,3.4-0.6,2.5-1.1,6.7c-0.8,6.9-0.2,11.6,0.2,16.4h14.1v-36H131.4z"
		/>
	<path class="st5" d="M135.4,81.5c-2.7,0.6-5.7,2.1-5.5,3.7c0.2,1.5,3.1,2.8,5.7,3.2c-1.6,0.7-2.9,1.8-2.7,2.8
		c0.1,0.9,1.1,1.7,2.5,2.3c-2.7,0.6-5.7,2.1-5.5,3.7c0.2,1.7,3.8,3.1,6.6,3.3c-1.5,0.7-2.7,1.7-2.6,2.7c0.1,0.9,1.1,1.7,2.5,2.3
		c-2.7,0.6-5.7,2.1-5.5,3.7c0.2,1.5,3.1,2.8,5.7,3.2c-1.6,0.7-2.9,1.8-2.7,2.8c0.1,0.9,1.1,1.7,2.5,2.3c0,0,0,0,0,0h13.5v-36H135.4z
		"/>
	<circle class="st6" cx="145.3" cy="114.5" r="1.3"/>
	<circle class="st6" cx="144" cy="108" r="0.9"/>
</g>
<g>
	<rect x="113.9" y="45.5" class="st0" width="36" height="36"/>
	<path class="st1" d="M145.9,49.5v-4c-5.1,0-10.3,0-15.4,0c0.4,1.1,0.8,2.5,1.1,4h-17.7v14.7c7.1,0.2,12.3-0.6,18.4-0.8
		c-0.6,3.4-1.7,4.8-1.9,9.9c-0.1,3.4,0.4,5.9,0.9,8.2h14.5V64.2c1.7,0.3,3.1,0.5,4,0.7V49.5H145.9z"/>
	<circle class="st3" cx="122.4" cy="72" r="2.5"/>
	<path class="st5" d="M136.2,45.5h-22.3V59c0.6,2.7,2.1,5.7,3.7,5.5c1.4-0.2,2.6-2.6,3.1-5c0.7,1.8,1.8,3.1,2.9,3
		c0.9-0.1,1.7-1.1,2.3-2.5c0.6,2.7,2.1,5.7,3.7,5.5c0.9-0.1,1.8-1.3,2.4-2.8c1.1,0.8,3,1.4,4.6,1.7c-1.6,0.7-2.9,1.8-2.7,2.8
		c0.1,0.9,1.1,1.7,2.5,2.3c-2.7,0.6-5.7,2.1-5.5,3.7c0.2,1.4,2.6,2.6,5,3.1c-1.8,0.7-3.1,1.8-3,2.9c0.1,0.9,1.1,1.7,2.5,2.3
		c0,0,0,0,0,0h14.5V59.2V45.5C145.4,45.5,140.8,45.5,136.2,45.5z"/>
	<circle class="st6" cx="124.9" cy="51.5" r="1"/>
	<ellipse class="st6" cx="140.6" cy="73.8" rx="1" ry="0.9"/>
	<ellipse class="st6" cx="143.1" cy="66.4" rx="1.5" ry="1.3"/>
</g>
<circle class="st6" cx="73.3" cy="143.4" r="0.9"/>
<g>
	<rect x="113.9" y="117.5" class="st0" width="36" height="36"/>
	<path class="st1" d="M145.9,117.5h-14.1c0.3,3.9,0.5,7.8-0.2,13.1c-0.3,2.1-0.6,3.8-0.9,5.1c-2.5-0.6-4.2-1.5-8.6-1.6
		c-3.4-0.1-5.9,0.4-8.2,0.9v14.5h36c0-5.1,0-10.3,0-15.4c-1.1,0.4-2.5,0.8-4,1.1V117.5z"/>
	<circle class="st2" cx="124.9" cy="128.5" r="1"/>
	<circle class="st2" cx="134.4" cy="142" r="1.5"/>
	<circle class="st3" cx="119.4" cy="122" r="2.5"/>
	<path class="st5" d="M131,121.2c0.2,1.4,2.6,2.6,5,3.1c-1.8,0.7-3.1,1.8-3,2.9c0.1,0.9,1.1,1.7,2.5,2.3c-2.7,0.6-5.7,2.1-5.5,3.7
		c0.1,0.9,1.3,1.8,2.8,2.4c-0.8,1.1-1.4,3-1.7,4.6c-0.7-1.6-1.8-2.9-2.8-2.7c-0.9,0.1-1.7,1.1-2.3,2.5c-0.6-2.7-2.1-5.7-3.7-5.5
		c-1.4,0.2-2.6,2.6-3.1,5c-0.7-1.8-1.8-3.1-2.9-3c-0.9,0.1-1.7,1.1-2.3,2.5c0,0,0,0,0,0v14.5h22.3h13.7c0-4.6,0-9.1,0-13.7v-22.3
		h-13.5C133.8,118.1,130.8,119.6,131,121.2z"/>
	<circle class="st6" cx="141.4" cy="121.7" r="0.9"/>
	<circle class="st6" cx="143.6" cy="141.9" r="1"/>
	<ellipse class="st6" cx="121.3" cy="142.5" rx="0.9" ry="1"/>
	<ellipse class="st6" cx="128.6" cy="145" rx="1.3" ry="1.5"/>
</g>
</svg>
